# xmcd CD database file
#
# Track frame offsets:
#	150
#	13148
#	26383
#	38839
#	49289
#	61725
#	78438
#	90661
#	102824
#	114524
#	128777
#	143770
#	158726
#	170734
#	184277
#	199300
#
# Disc length: 2818 seconds
#
# Revision: 2
# Processed by: cddbd v1.4b41PL1 Copyright (c) Steve Scherf et al.
# Submitted via: Feurio! 1.52 - http://www.feurio.com
#
DISCID=d40b0010
DTITLE=Various Artist - Neues Projekt
DYEAR=1900
DGENRE=
TTITLE0=Ronny  - Hohe Tannen
TTITLE1=Ronny - Kleine Annabell
TTITLE2=Ronny  - Oh My Darling Caroline
TTITLE3=Ronny  - Eine kleine Tr‰ne
TTITLE4=Ronny  - Laﬂ die Sonne wieder scheinen
TTITLE5=Ronny  - Sierra Madre dei Sur
TTITLE6=Ronny  - Kein Gold im Blue River
TTITLE7=Ronny  - Anja Anja
TTITLE8=Ronny  - Dunja, Du
TTITLE9=Ronny  - Laura, oh Laura
TTITLE10=Ronny  - Er war nur ein armer Zigeuner
TTITLE11=Ronny  - Doch dann kamst du
TTITLE12=Ronny - Little Sweatheart Belinda
TTITLE13=Ronny - Good Morning, MySweet Adalita
TTITLE14=Ronny - Adios, My Darling
TTITLE15=Ronny - Wenn der Tag zu Ende geht
EXTD=
EXTT0=
EXTT1=
EXTT2=
EXTT3=
EXTT4=
EXTT5=
EXTT6=
EXTT7=
EXTT8=
EXTT9=
EXTT10=
EXTT11=
EXTT12=
EXTT13=
EXTT14=
EXTT15=
PLAYORDER=
